<svg width="745" height="444" viewBox="0 0 745 444" fill="none" xmlns="http://www.w3.org/2000/svg">
<g id="Group 1" filter="url(#filter0_d)">
<path id="laptopTop" d="M688.232 5.36232H428.062V0H310.091V5.36232H48.8491C46.5381 5.36232 44.2496 5.81751 42.1145 6.70192C39.9793 7.58633 38.0393 8.88263 36.4051 10.5168C34.7709 12.151 33.4746 14.091 32.5902 16.2262C31.7058 18.3613 31.2506 20.6497 31.2506 22.9608V379.213C31.2506 381.524 31.7058 383.813 32.5902 385.948C33.4746 388.083 34.7709 390.023 36.4051 391.657C38.0393 393.291 39.9793 394.588 42.1144 395.472C44.2496 396.356 46.538 396.812 48.8491 396.812H688.232C692.899 396.812 697.375 394.957 700.676 391.657C703.976 388.357 705.83 383.88 705.83 379.213V22.9608C705.83 20.6497 705.375 18.3613 704.491 16.2262C703.606 14.091 702.31 12.151 700.676 10.5168C699.042 8.88263 697.102 7.58633 694.966 6.70192C692.831 5.81751 690.543 5.36232 688.232 5.36232Z" fill="#343439"/>
<path id="Vector" d="M368.004 26.8116C371.558 26.8116 374.439 23.9306 374.439 20.3768C374.439 16.823 371.558 13.942 368.004 13.942C364.45 13.942 361.569 16.823 361.569 20.3768C361.569 23.9306 364.45 26.8116 368.004 26.8116Z" fill="#39397F"/>
<path id="laptopBottom" d="M723.446 383.942H662.217V379.53C662.217 379.416 662.194 379.302 662.15 379.196C662.106 379.09 662.042 378.993 661.961 378.912C661.879 378.831 661.783 378.766 661.677 378.722C661.571 378.678 661.457 378.656 661.342 378.656H640.349C640.234 378.656 640.121 378.678 640.014 378.722C639.908 378.766 639.812 378.831 639.731 378.912C639.649 378.993 639.585 379.09 639.541 379.196C639.497 379.302 639.475 379.416 639.475 379.53V383.942H626.354V379.53C626.354 379.416 626.331 379.302 626.287 379.196C626.243 379.09 626.179 378.993 626.098 378.912C626.016 378.831 625.92 378.766 625.814 378.722C625.708 378.678 625.594 378.656 625.479 378.656H604.486C604.371 378.656 604.258 378.678 604.152 378.722C604.045 378.766 603.949 378.831 603.868 378.912C603.787 378.993 603.722 379.09 603.678 379.196C603.634 379.302 603.612 379.416 603.612 379.53V383.942H590.491V379.53C590.491 379.416 590.468 379.302 590.424 379.196C590.381 379.09 590.316 378.993 590.235 378.912C590.154 378.831 590.057 378.766 589.951 378.722C589.845 378.678 589.731 378.656 589.616 378.656H568.623C568.508 378.656 568.395 378.678 568.289 378.722C568.183 378.766 568.086 378.831 568.005 378.912C567.924 378.993 567.859 379.09 567.815 379.196C567.771 379.302 567.749 379.416 567.749 379.53V383.942H554.628V379.53C554.628 379.416 554.606 379.302 554.562 379.196C554.518 379.09 554.453 378.993 554.372 378.912C554.291 378.831 554.194 378.766 554.088 378.722C553.982 378.678 553.868 378.656 553.753 378.656H532.761C532.646 378.656 532.532 378.678 532.426 378.722C532.32 378.766 532.223 378.831 532.142 378.912C532.061 378.993 531.996 379.09 531.952 379.196C531.908 379.302 531.886 379.416 531.886 379.53V383.942H518.765V379.53C518.765 379.416 518.743 379.302 518.699 379.196C518.655 379.09 518.59 378.993 518.509 378.912C518.428 378.831 518.331 378.766 518.225 378.722C518.119 378.678 518.005 378.656 517.891 378.656H496.898C496.783 378.656 496.669 378.678 496.563 378.722C496.457 378.766 496.36 378.831 496.279 378.912C496.198 378.993 496.133 379.09 496.09 379.196C496.046 379.302 496.023 379.416 496.023 379.53V383.942H482.902V379.53C482.902 379.416 482.88 379.302 482.836 379.196C482.792 379.09 482.727 378.993 482.646 378.912C482.565 378.831 482.469 378.766 482.362 378.722C482.256 378.678 482.143 378.656 482.028 378.656H461.035C460.92 378.656 460.806 378.678 460.7 378.722C460.594 378.766 460.497 378.831 460.416 378.912C460.335 378.993 460.271 379.09 460.227 379.196C460.183 379.302 460.16 379.416 460.16 379.53V383.942H447.04V379.53C447.04 379.416 447.017 379.302 446.973 379.196C446.929 379.09 446.865 378.993 446.783 378.912C446.702 378.831 446.606 378.766 446.5 378.722C446.393 378.678 446.28 378.656 446.165 378.656H281.72C281.605 378.656 281.492 378.678 281.386 378.722C281.279 378.766 281.183 378.831 281.102 378.912C281.021 378.993 280.956 379.09 280.912 379.196C280.868 379.302 280.846 379.416 280.846 379.53V383.942H267.725V379.53C267.725 379.416 267.702 379.302 267.658 379.196C267.615 379.09 267.55 378.993 267.469 378.912C267.388 378.831 267.291 378.766 267.185 378.722C267.079 378.678 266.965 378.656 266.85 378.656H245.858C245.743 378.656 245.629 378.678 245.523 378.722C245.417 378.766 245.32 378.831 245.239 378.912C245.158 378.993 245.093 379.09 245.049 379.196C245.005 379.302 244.983 379.416 244.983 379.53V383.942H231.862V379.53C231.862 379.416 231.84 379.302 231.796 379.196C231.752 379.09 231.687 378.993 231.606 378.912C231.525 378.831 231.428 378.766 231.322 378.722C231.216 378.678 231.102 378.656 230.987 378.656H209.995C209.88 378.656 209.766 378.678 209.66 378.722C209.554 378.766 209.457 378.831 209.376 378.912C209.295 378.993 209.23 379.09 209.186 379.196C209.142 379.302 209.12 379.416 209.12 379.53V383.942H195.999V379.53C195.999 379.416 195.977 379.302 195.933 379.196C195.889 379.09 195.824 378.993 195.743 378.912C195.662 378.831 195.565 378.766 195.459 378.722C195.353 378.678 195.239 378.656 195.125 378.656H174.132C174.017 378.656 173.903 378.678 173.797 378.722C173.691 378.766 173.594 378.831 173.513 378.912C173.432 378.993 173.368 379.09 173.324 379.196C173.28 379.302 173.257 379.416 173.257 379.53V383.942H160.136V379.53C160.136 379.416 160.114 379.302 160.07 379.196C160.026 379.09 159.961 378.993 159.88 378.912C159.799 378.831 159.703 378.766 159.596 378.722C159.49 378.678 159.377 378.656 159.262 378.656H138.269C138.154 378.656 138.04 378.678 137.934 378.722C137.828 378.766 137.732 378.831 137.65 378.912C137.569 378.993 137.505 379.09 137.461 379.196C137.417 379.302 137.394 379.416 137.394 379.53V383.942H124.274V379.53C124.274 379.416 124.251 379.302 124.207 379.196C124.163 379.09 124.099 378.993 124.017 378.912C123.936 378.831 123.84 378.766 123.734 378.722C123.627 378.678 123.514 378.656 123.399 378.656H102.406C102.291 378.656 102.177 378.678 102.071 378.722C101.965 378.766 101.869 378.831 101.787 378.912C101.706 378.993 101.642 379.09 101.598 379.196C101.554 379.302 101.531 379.416 101.531 379.53V383.942H88.4106V379.53C88.4106 379.416 88.388 379.302 88.3441 379.196C88.3001 379.09 88.2357 378.993 88.1545 378.912C88.0733 378.831 87.9768 378.766 87.8707 378.722C87.7646 378.678 87.6508 378.656 87.5359 378.656H66.543C66.4282 378.656 66.3144 378.678 66.2083 378.722C66.1022 378.766 66.0058 378.831 65.9245 378.912C65.8433 378.993 65.7789 379.09 65.7349 379.196C65.6909 379.302 65.6683 379.416 65.6683 379.53V383.942H25.4319C19.8643 383.942 14.5246 386.154 10.5877 390.091C6.65078 394.028 4.43903 399.367 4.43903 404.935V414.427C4.43904 419.995 6.65078 425.335 10.5877 429.272C14.5246 433.209 19.8643 435.42 25.4319 435.42H723.446C729.014 435.42 734.353 433.209 738.29 429.272C742.227 425.335 744.439 419.995 744.439 414.427V404.935C744.439 399.367 742.227 394.028 738.29 390.091C734.353 386.154 729.014 383.942 723.446 383.942V383.942Z" fill="#29292E"/>
</g>
<defs>
<filter id="filter0_d" x="0.439026" y="0" width="748" height="443.42" filterUnits="userSpaceOnUse" color-interpolation-filters="sRGB">
<feFlood flood-opacity="0" result="BackgroundImageFix"/>
<feColorMatrix in="SourceAlpha" type="matrix" values="0 0 0 0 0 0 0 0 0 0 0 0 0 0 0 0 0 0 127 0"/>
<feOffset dy="4"/>
<feGaussianBlur stdDeviation="2"/>
<feColorMatrix type="matrix" values="0 0 0 0 0 0 0 0 0 0 0 0 0 0 0 0 0 0 0.25 0"/>
<feBlend mode="normal" in2="BackgroundImageFix" result="effect1_dropShadow"/>
<feBlend mode="normal" in="SourceGraphic" in2="effect1_dropShadow" result="shape"/>
</filter>
</defs>
</svg>
