<svg width="493" height="493" viewBox="0 0 493 493" fill="none" xmlns="http://www.w3.org/2000/svg">
<g clip-path="url(#clip0)">
<path d="M484.14 226.886L306.46 49.202C301.388 44.13 294.628 41.346 287.42 41.346C280.204 41.346 273.448 44.134 268.376 49.202L252.244 65.338C247.176 70.402 244.384 77.166 244.384 84.378C244.384 91.586 247.176 98.578 252.244 103.642L355.9 207.526H26.58C11.732 207.526 0 219.15 0 234.002V256.814C0 271.666 11.732 284.462 26.58 284.462H357.076L252.248 388.926C247.18 393.998 244.388 400.578 244.388 407.79C244.388 414.994 247.18 421.67 252.248 426.738L268.38 442.822C273.452 447.894 280.208 450.658 287.424 450.658C294.632 450.658 301.392 447.858 306.464 442.786L484.144 265.106C489.228 260.018 492.024 253.226 492.004 246.006C492.02 238.762 489.228 231.966 484.14 226.886Z" fill="white"/>
</g>
<defs>
<clipPath id="clip0">
<rect width="492.004" height="492.004" fill="white"/>
</clipPath>
</defs>
</svg>
